<?xml version="1.0" encoding="utf-8"?>
<!-- Generator: Adobe Illustrator 21.0.0, SVG Export Plug-In . SVG Version: 6.00 Build 0)  -->
<svg version="1.1" id="Layer_1" xmlns="http://www.w3.org/2000/svg" xmlns:xlink="http://www.w3.org/1999/xlink" x="0px" y="0px"
	 width="189.6px" height="64.8px" viewBox="0 0 189.6 64.8" style="enable-background:new 0 0 189.6 64.8;" xml:space="preserve">
<style type="text/css">
	.st0{fill:#000104;}
</style>
<path class="st0" d="M145.2,7.1V57h-6.6V7.1H145.2z M46.7,56.9H33.2l-2.3-8.3H16.1l-2.6,8.3H0L16,6.1h15L46.7,56.9L46.7,56.9z
	 M19.1,38.4H28l-4.4-15.7L19.1,38.4z M61.8,56.9H49.1V6.2h18.6c5.6,0,10.1,1.2,13.2,3.7c3.4,2.7,5.2,7.2,5.2,12.6
	c0,5.5-1.9,10.4-5.2,13.1c-3.1,2.5-7.6,3.7-13.2,3.7h-5.9L61.8,56.9L61.8,56.9z M61.8,28.3h5.9c5.8,0,6.6-2.3,6.6-5.8
	c0-3.4-0.8-5.7-6.6-5.7h-5.9L61.8,28.3L61.8,28.3z M188.2,50.2c-3.3,1.3-6.8,1.9-10.3,1.9c-11.7,0-19.3-8.2-19.3-20.8
	c0-11.4,7.5-19.5,18.1-19.5c4.3,0,7.6,0.9,11,3l1.7-5.6c-1-0.6-2-1-3.1-1.4c-3-1.1-6.2-1.7-9.4-1.7c-14.3,0-25,11-25,25.6
	c0,15.3,10.6,26.1,25.7,26.1c2.3,0,4.6-0.3,6.9-0.8c1.8-0.4,3.5-1,5.2-1.8L188.2,50.2z M124.4,56.8L97.1,18.1v38.6h-6.3V7.1h6
	l26.3,37.2V7.1h6.3v49.6H124.4z"/>
</svg>
